<svg width="127" height="42" viewBox="0 0 127 42" fill="none" xmlns="http://www.w3.org/2000/svg">
<path d="M1.40909 12V0.363636H8.43182V1.61364H2.81818V5.54545H8.06818V6.79545H2.81818V10.75H8.52273V12H1.40909ZM12.1307 6.75V12H10.7898V3.27273H12.0852V4.63636H12.1989C12.4034 4.19318 12.714 3.83712 13.1307 3.56818C13.5473 3.29545 14.0852 3.15909 14.7443 3.15909C15.3352 3.15909 15.8523 3.2803 16.2955 3.52273C16.7386 3.76136 17.0833 4.125 17.3295 4.61364C17.5758 5.09848 17.6989 5.71212 17.6989 6.45455V12H16.358V6.54545C16.358 5.85985 16.1799 5.32576 15.8239 4.94318C15.4678 4.55682 14.9792 4.36364 14.358 4.36364C13.9299 4.36364 13.5473 4.45644 13.2102 4.64205C12.8769 4.82765 12.6136 5.09848 12.4205 5.45455C12.2273 5.81061 12.1307 6.24242 12.1307 6.75ZM20.1491 3.27273H21.4901V12.6364C21.4901 13.1742 21.3973 13.6402 21.2116 14.0341C21.0298 14.428 20.7533 14.733 20.3821 14.9489C20.0147 15.1648 19.5507 15.2727 18.9901 15.2727C18.9446 15.2727 18.8991 15.2727 18.8537 15.2727C18.8082 15.2727 18.7628 15.2727 18.7173 15.2727V14.0227C18.7628 14.0227 18.8045 14.0227 18.8423 14.0227C18.8802 14.0227 18.9219 14.0227 18.9673 14.0227C19.3764 14.0227 19.6757 13.9015 19.8651 13.6591C20.0545 13.4205 20.1491 13.0795 20.1491 12.6364V3.27273ZM20.8082 1.81818C20.5469 1.81818 20.3215 1.72917 20.1321 1.55114C19.9465 1.37311 19.8537 1.15909 19.8537 0.909091C19.8537 0.659091 19.9465 0.445076 20.1321 0.267045C20.3215 0.089015 20.5469 0 20.8082 0C21.0696 0 21.2931 0.089015 21.4787 0.267045C21.6681 0.445076 21.7628 0.659091 21.7628 0.909091C21.7628 1.15909 21.6681 1.37311 21.4787 1.55114C21.2931 1.72917 21.0696 1.81818 20.8082 1.81818ZM27.4915 12.1818C26.7036 12.1818 26.0123 11.9943 25.4176 11.6193C24.8267 11.2443 24.3646 10.7197 24.0312 10.0455C23.7017 9.37121 23.5369 8.58333 23.5369 7.68182C23.5369 6.77273 23.7017 5.97917 24.0312 5.30114C24.3646 4.62311 24.8267 4.09659 25.4176 3.72159C26.0123 3.34659 26.7036 3.15909 27.4915 3.15909C28.2794 3.15909 28.9688 3.34659 29.5597 3.72159C30.1544 4.09659 30.6165 4.62311 30.946 5.30114C31.2794 5.97917 31.446 6.77273 31.446 7.68182C31.446 8.58333 31.2794 9.37121 30.946 10.0455C30.6165 10.7197 30.1544 11.2443 29.5597 11.6193C28.9688 11.9943 28.2794 12.1818 27.4915 12.1818ZM27.4915 10.9773C28.09 10.9773 28.5824 10.8239 28.9688 10.517C29.3551 10.2102 29.6411 9.80682 29.8267 9.30682C30.0123 8.80682 30.1051 8.26515 30.1051 7.68182C30.1051 7.09848 30.0123 6.55492 29.8267 6.05114C29.6411 5.54735 29.3551 5.14015 28.9688 4.82955C28.5824 4.51894 28.09 4.36364 27.4915 4.36364C26.893 4.36364 26.4006 4.51894 26.0142 4.82955C25.6278 5.14015 25.3419 5.54735 25.1562 6.05114C24.9706 6.55492 24.8778 7.09848 24.8778 7.68182C24.8778 8.26515 24.9706 8.80682 25.1562 9.30682C25.3419 9.80682 25.6278 10.2102 26.0142 10.517C26.4006 10.8239 26.893 10.9773 27.4915 10.9773ZM34.044 15.2727C33.8168 15.2727 33.6141 15.2538 33.4361 15.2159C33.258 15.1818 33.1349 15.1477 33.0668 15.1136L33.4077 13.9318C33.7334 14.0152 34.0213 14.0455 34.2713 14.0227C34.5213 14 34.7429 13.8883 34.9361 13.6875C35.133 13.4905 35.313 13.1705 35.4759 12.7273L35.7259 12.0455L32.4986 3.27273H33.9531L36.3622 10.2273H36.4531L38.8622 3.27273H40.3168L36.6122 13.2727C36.4455 13.7235 36.2391 14.0966 35.9929 14.392C35.7467 14.6913 35.4607 14.9129 35.1349 15.0568C34.813 15.2008 34.4493 15.2727 34.044 15.2727ZM50.3821 3.27273V4.40909H45.8594V3.27273H50.3821ZM47.1776 1.18182H48.5185V9.5C48.5185 9.87879 48.5734 10.1629 48.6832 10.3523C48.7969 10.5379 48.9408 10.6629 49.1151 10.7273C49.2931 10.7879 49.4806 10.8182 49.6776 10.8182C49.8253 10.8182 49.9465 10.8106 50.0412 10.7955C50.1359 10.7765 50.2116 10.7614 50.2685 10.75L50.5412 11.9545C50.4503 11.9886 50.3234 12.0227 50.1605 12.0568C49.9976 12.0947 49.7912 12.1136 49.5412 12.1136C49.1624 12.1136 48.7912 12.0322 48.4276 11.8693C48.0677 11.7064 47.7685 11.4583 47.5298 11.125C47.295 10.7917 47.1776 10.3712 47.1776 9.86364V1.18182ZM53.9276 6.75V12H52.5866V0.363636H53.9276V4.63636H54.0412C54.2457 4.18561 54.5526 3.82765 54.9616 3.5625C55.3745 3.29356 55.9238 3.15909 56.6094 3.15909C57.2041 3.15909 57.7249 3.27841 58.1719 3.51705C58.6188 3.75189 58.9654 4.11364 59.2116 4.60227C59.4616 5.08712 59.5866 5.70455 59.5866 6.45455V12H58.2457V6.54545C58.2457 5.85227 58.0658 5.31629 57.706 4.9375C57.3499 4.55492 56.8556 4.36364 56.223 4.36364C55.7836 4.36364 55.3897 4.45644 55.0412 4.64205C54.6965 4.82765 54.4238 5.09848 54.223 5.45455C54.026 5.81061 53.9276 6.24242 53.9276 6.75ZM65.6989 12.1818C64.858 12.1818 64.1326 11.9962 63.5227 11.625C62.9167 11.25 62.4489 10.7273 62.1193 10.0568C61.7936 9.38258 61.6307 8.59848 61.6307 7.70455C61.6307 6.81061 61.7936 6.02273 62.1193 5.34091C62.4489 4.6553 62.9072 4.12121 63.4943 3.73864C64.0852 3.35227 64.7746 3.15909 65.5625 3.15909C66.017 3.15909 66.4659 3.23485 66.9091 3.38636C67.3523 3.53788 67.7557 3.78409 68.1193 4.125C68.483 4.46212 68.7727 4.90909 68.9886 5.46591C69.2045 6.02273 69.3125 6.70833 69.3125 7.52273V8.09091H62.5852V6.93182H67.9489C67.9489 6.43939 67.8504 6 67.6534 5.61364C67.4602 5.22727 67.1837 4.92235 66.8239 4.69886C66.4678 4.47538 66.0473 4.36364 65.5625 4.36364C65.0284 4.36364 64.5663 4.49621 64.1761 4.76136C63.7898 5.02273 63.4924 5.36364 63.2841 5.78409C63.0758 6.20455 62.9716 6.6553 62.9716 7.13636V7.90909C62.9716 8.56818 63.0852 9.12689 63.3125 9.58523C63.5436 10.0398 63.8636 10.3864 64.2727 10.625C64.6818 10.8598 65.1572 10.9773 65.6989 10.9773C66.0511 10.9773 66.3693 10.928 66.6534 10.8295C66.9413 10.7273 67.1894 10.5758 67.3977 10.375C67.6061 10.1705 67.767 9.91667 67.8807 9.61364L69.1761 9.97727C69.0398 10.4167 68.8106 10.803 68.4886 11.1364C68.1667 11.4659 67.7689 11.7235 67.2955 11.9091C66.822 12.0909 66.2898 12.1818 65.6989 12.1818ZM79.6477 3.27273V4.40909H75.125V3.27273H79.6477ZM76.4432 1.18182H77.7841V9.5C77.7841 9.87879 77.839 10.1629 77.9489 10.3523C78.0625 10.5379 78.2064 10.6629 78.3807 10.7273C78.5587 10.7879 78.7462 10.8182 78.9432 10.8182C79.0909 10.8182 79.2121 10.8106 79.3068 10.7955C79.4015 10.7765 79.4773 10.7614 79.5341 10.75L79.8068 11.9545C79.7159 11.9886 79.589 12.0227 79.4261 12.0568C79.2633 12.0947 79.0568 12.1136 78.8068 12.1136C78.428 12.1136 78.0568 12.0322 77.6932 11.8693C77.3333 11.7064 77.0341 11.4583 76.7955 11.125C76.5606 10.7917 76.4432 10.3712 76.4432 9.86364V1.18182ZM85.1165 12.1818C84.3286 12.1818 83.6373 11.9943 83.0426 11.6193C82.4517 11.2443 81.9896 10.7197 81.6562 10.0455C81.3267 9.37121 81.1619 8.58333 81.1619 7.68182C81.1619 6.77273 81.3267 5.97917 81.6562 5.30114C81.9896 4.62311 82.4517 4.09659 83.0426 3.72159C83.6373 3.34659 84.3286 3.15909 85.1165 3.15909C85.9044 3.15909 86.5938 3.34659 87.1847 3.72159C87.7794 4.09659 88.2415 4.62311 88.571 5.30114C88.9044 5.97917 89.071 6.77273 89.071 7.68182C89.071 8.58333 88.9044 9.37121 88.571 10.0455C88.2415 10.7197 87.7794 11.2443 87.1847 11.6193C86.5938 11.9943 85.9044 12.1818 85.1165 12.1818ZM85.1165 10.9773C85.715 10.9773 86.2074 10.8239 86.5938 10.517C86.9801 10.2102 87.2661 9.80682 87.4517 9.30682C87.6373 8.80682 87.7301 8.26515 87.7301 7.68182C87.7301 7.09848 87.6373 6.55492 87.4517 6.05114C87.2661 5.54735 86.9801 5.14015 86.5938 4.82955C86.2074 4.51894 85.715 4.36364 85.1165 4.36364C84.518 4.36364 84.0256 4.51894 83.6392 4.82955C83.2528 5.14015 82.9669 5.54735 82.7812 6.05114C82.5956 6.55492 82.5028 7.09848 82.5028 7.68182C82.5028 8.26515 82.5956 8.80682 82.7812 9.30682C82.9669 9.80682 83.2528 10.2102 83.6392 10.517C84.0256 10.8239 84.518 10.9773 85.1165 10.9773ZM96.6179 8.43182V3.27273H97.9588V12H96.6179V10.5227H96.527C96.3224 10.9659 96.0043 11.3428 95.5724 11.6534C95.1406 11.9602 94.5952 12.1136 93.9361 12.1136C93.3906 12.1136 92.9058 11.9943 92.4815 11.7557C92.0573 11.5133 91.724 11.1496 91.4815 10.6648C91.2391 10.1761 91.1179 9.56061 91.1179 8.81818V3.27273H92.4588V8.72727C92.4588 9.36364 92.6368 9.87121 92.9929 10.25C93.3527 10.6288 93.8111 10.8182 94.3679 10.8182C94.7012 10.8182 95.0402 10.733 95.3849 10.5625C95.7334 10.392 96.0251 10.1307 96.2599 9.77841C96.4986 9.42614 96.6179 8.97727 96.6179 8.43182ZM100.415 12V3.27273H101.71V4.59091H101.801C101.96 4.15909 102.248 3.80871 102.665 3.53977C103.081 3.27083 103.551 3.13636 104.074 3.13636C104.172 3.13636 104.295 3.13826 104.443 3.14205C104.591 3.14583 104.703 3.15152 104.778 3.15909V4.52273C104.733 4.51136 104.629 4.49432 104.466 4.47159C104.307 4.44508 104.138 4.43182 103.96 4.43182C103.536 4.43182 103.157 4.52083 102.824 4.69886C102.494 4.87311 102.233 5.11553 102.04 5.42614C101.85 5.73295 101.756 6.08333 101.756 6.47727V12H100.415ZM106.368 12V3.27273H107.709V12H106.368ZM107.05 1.81818C106.788 1.81818 106.563 1.72917 106.374 1.55114C106.188 1.37311 106.095 1.15909 106.095 0.909091C106.095 0.659091 106.188 0.445076 106.374 0.267045C106.563 0.089015 106.788 0 107.05 0C107.311 0 107.535 0.089015 107.72 0.267045C107.91 0.445076 108.004 0.659091 108.004 0.909091C108.004 1.15909 107.91 1.37311 107.72 1.55114C107.535 1.72917 107.311 1.81818 107.05 1.81818ZM111.506 6.75V12H110.165V3.27273H111.46V4.63636H111.574C111.778 4.19318 112.089 3.83712 112.506 3.56818C112.922 3.29545 113.46 3.15909 114.119 3.15909C114.71 3.15909 115.227 3.2803 115.67 3.52273C116.114 3.76136 116.458 4.125 116.705 4.61364C116.951 5.09848 117.074 5.71212 117.074 6.45455V12H115.733V6.54545C115.733 5.85985 115.555 5.32576 115.199 4.94318C114.843 4.55682 114.354 4.36364 113.733 4.36364C113.305 4.36364 112.922 4.45644 112.585 4.64205C112.252 4.82765 111.989 5.09848 111.795 5.45455C111.602 5.81061 111.506 6.24242 111.506 6.75ZM123.047 15.4545C122.399 15.4545 121.842 15.3712 121.376 15.2045C120.911 15.0417 120.522 14.8258 120.212 14.5568C119.905 14.2917 119.661 14.0076 119.479 13.7045L120.547 12.9545C120.668 13.1136 120.821 13.2955 121.007 13.5C121.193 13.7083 121.446 13.8883 121.768 14.0398C122.094 14.1951 122.52 14.2727 123.047 14.2727C123.751 14.2727 124.333 14.1023 124.791 13.7614C125.25 13.4205 125.479 12.8864 125.479 12.1591V10.3864H125.365C125.267 10.5455 125.126 10.7424 124.945 10.9773C124.767 11.2083 124.509 11.4148 124.172 11.5966C123.839 11.7746 123.388 11.8636 122.82 11.8636C122.115 11.8636 121.482 11.697 120.922 11.3636C120.365 11.0303 119.924 10.5455 119.598 9.90909C119.276 9.27273 119.115 8.5 119.115 7.59091C119.115 6.69697 119.272 5.91856 119.587 5.25568C119.901 4.58901 120.339 4.07386 120.899 3.71023C121.46 3.3428 122.107 3.15909 122.842 3.15909C123.411 3.15909 123.861 3.25379 124.195 3.44318C124.532 3.62879 124.789 3.84091 124.967 4.07955C125.149 4.31439 125.289 4.50758 125.388 4.65909H125.524V3.27273H126.82V12.25C126.82 13 126.649 13.6098 126.308 14.0795C125.971 14.553 125.517 14.8996 124.945 15.1193C124.376 15.3428 123.744 15.4545 123.047 15.4545ZM123.001 10.6591C123.539 10.6591 123.994 10.536 124.365 10.2898C124.736 10.0436 125.018 9.68939 125.212 9.22727C125.405 8.76515 125.501 8.21212 125.501 7.56818C125.501 6.93939 125.407 6.38447 125.217 5.90341C125.028 5.42235 124.748 5.04545 124.376 4.77273C124.005 4.5 123.547 4.36364 123.001 4.36364C122.433 4.36364 121.96 4.50758 121.581 4.79545C121.206 5.08333 120.924 5.4697 120.734 5.95455C120.549 6.43939 120.456 6.97727 120.456 7.56818C120.456 8.17424 120.551 8.71023 120.74 9.17614C120.933 9.63826 121.217 10.0019 121.592 10.267C121.971 10.5284 122.441 10.6591 123.001 10.6591ZM3.20455 38L0.545455 29.2727H1.95455L3.84091 35.9545H3.93182L5.79545 29.2727H7.22727L9.06818 35.9318H9.15909L11.0455 29.2727H12.4545L9.79545 38H8.47727L6.56818 31.2955H6.43182L4.52273 38H3.20455ZM14.2273 38V29.2727H15.5682V38H14.2273ZM14.9091 27.8182C14.6477 27.8182 14.4223 27.7292 14.233 27.5511C14.0473 27.3731 13.9545 27.1591 13.9545 26.9091C13.9545 26.6591 14.0473 26.4451 14.233 26.267C14.4223 26.089 14.6477 26 14.9091 26C15.1705 26 15.3939 26.089 15.5795 26.267C15.7689 26.4451 15.8636 26.6591 15.8636 26.9091C15.8636 27.1591 15.7689 27.3731 15.5795 27.5511C15.3939 27.7292 15.1705 27.8182 14.9091 27.8182ZM21.8196 29.2727V30.4091H17.2969V29.2727H21.8196ZM18.6151 27.1818H19.956V35.5C19.956 35.8788 20.0109 36.1629 20.1207 36.3523C20.2344 36.5379 20.3783 36.6629 20.5526 36.7273C20.7306 36.7879 20.9181 36.8182 21.1151 36.8182C21.2628 36.8182 21.384 36.8106 21.4787 36.7955C21.5734 36.7765 21.6491 36.7614 21.706 36.75L21.9787 37.9545C21.8878 37.9886 21.7609 38.0227 21.598 38.0568C21.4351 38.0947 21.2287 38.1136 20.9787 38.1136C20.5999 38.1136 20.2287 38.0322 19.8651 37.8693C19.5052 37.7064 19.206 37.4583 18.9673 37.125C18.7325 36.7917 18.6151 36.3712 18.6151 35.8636V27.1818ZM25.3651 32.75V38H24.0241V26.3636H25.3651V30.6364H25.4787C25.6832 30.1856 25.9901 29.8277 26.3991 29.5625C26.812 29.2936 27.3613 29.1591 28.0469 29.1591C28.6416 29.1591 29.1624 29.2784 29.6094 29.517C30.0563 29.7519 30.4029 30.1136 30.6491 30.6023C30.8991 31.0871 31.0241 31.7045 31.0241 32.4545V38H29.6832V32.5455C29.6832 31.8523 29.5033 31.3163 29.1435 30.9375C28.7874 30.5549 28.2931 30.3636 27.6605 30.3636C27.2211 30.3636 26.8272 30.4564 26.4787 30.642C26.134 30.8277 25.8613 31.0985 25.6605 31.4545C25.4635 31.8106 25.3651 32.2424 25.3651 32.75ZM44.5227 29.2727C44.4545 28.697 44.178 28.25 43.6932 27.9318C43.2083 27.6136 42.6136 27.4545 41.9091 27.4545C41.3939 27.4545 40.9432 27.5379 40.5568 27.7045C40.1742 27.8712 39.875 28.1004 39.6591 28.392C39.447 28.6837 39.3409 29.0152 39.3409 29.3864C39.3409 29.697 39.4148 29.964 39.5625 30.1875C39.714 30.4072 39.9072 30.5909 40.142 30.7386C40.3769 30.8826 40.6231 31.0019 40.8807 31.0966C41.1383 31.1875 41.375 31.2614 41.5909 31.3182L42.7727 31.6364C43.0758 31.7159 43.4129 31.8258 43.7841 31.9659C44.1591 32.1061 44.517 32.2973 44.858 32.5398C45.2027 32.7784 45.4867 33.0852 45.7102 33.4602C45.9337 33.8352 46.0455 34.2955 46.0455 34.8409C46.0455 35.4697 45.8807 36.0379 45.5511 36.5455C45.2254 37.053 44.7481 37.4564 44.1193 37.7557C43.4943 38.0549 42.7348 38.2045 41.8409 38.2045C41.0076 38.2045 40.286 38.0701 39.6761 37.8011C39.0701 37.5322 38.5928 37.1572 38.2443 36.6761C37.8996 36.1951 37.7045 35.6364 37.6591 35H39.1136C39.1515 35.4394 39.2992 35.803 39.5568 36.0909C39.8182 36.375 40.1477 36.5871 40.5455 36.7273C40.947 36.8636 41.3788 36.9318 41.8409 36.9318C42.3788 36.9318 42.8617 36.8447 43.2898 36.6705C43.7178 36.4924 44.0568 36.2462 44.3068 35.9318C44.5568 35.6136 44.6818 35.2424 44.6818 34.8182C44.6818 34.4318 44.5739 34.1174 44.358 33.875C44.142 33.6326 43.858 33.4356 43.5057 33.2841C43.1534 33.1326 42.7727 33 42.3636 32.8864L40.9318 32.4773C40.0227 32.2159 39.303 31.8428 38.7727 31.358C38.2424 30.8731 37.9773 30.2386 37.9773 29.4545C37.9773 28.803 38.1534 28.2348 38.5057 27.75C38.8617 27.2614 39.339 26.8826 39.9375 26.6136C40.5398 26.3409 41.2121 26.2045 41.9545 26.2045C42.7045 26.2045 43.3712 26.339 43.9545 26.608C44.5379 26.8731 45 27.2367 45.3409 27.6989C45.6856 28.161 45.8674 28.6856 45.8864 29.2727H44.5227ZM50.7486 38.2045C50.1955 38.2045 49.6937 38.1004 49.2429 37.892C48.7921 37.6799 48.4342 37.375 48.169 36.9773C47.9039 36.5758 47.7713 36.0909 47.7713 35.5227C47.7713 35.0227 47.8698 34.6174 48.0668 34.3068C48.2637 33.9924 48.527 33.7462 48.8565 33.5682C49.1861 33.3902 49.5497 33.2576 49.9474 33.1705C50.349 33.0795 50.7524 33.0076 51.1577 32.9545C51.688 32.8864 52.1179 32.8352 52.4474 32.8011C52.7808 32.7633 53.0232 32.7008 53.1747 32.6136C53.33 32.5265 53.4077 32.375 53.4077 32.1591V32.1136C53.4077 31.553 53.2543 31.1174 52.9474 30.8068C52.6444 30.4962 52.1842 30.3409 51.5668 30.3409C50.9266 30.3409 50.4247 30.4811 50.0611 30.7614C49.6974 31.0417 49.4418 31.3409 49.294 31.6591L48.0213 31.2045C48.2486 30.6742 48.5516 30.2614 48.9304 29.9659C49.313 29.6667 49.7296 29.4583 50.1804 29.3409C50.6349 29.2197 51.0819 29.1591 51.5213 29.1591C51.8016 29.1591 52.1236 29.1932 52.4872 29.2614C52.8546 29.3258 53.2088 29.4602 53.5497 29.6648C53.8944 29.8693 54.1804 30.178 54.4077 30.5909C54.6349 31.0038 54.7486 31.5568 54.7486 32.25V38H53.4077V36.8182H53.3395C53.2486 37.0076 53.0971 37.2102 52.8849 37.4261C52.6728 37.642 52.3906 37.8258 52.0384 37.9773C51.6861 38.1288 51.2562 38.2045 50.7486 38.2045ZM50.9531 37C51.4834 37 51.9304 36.8958 52.294 36.6875C52.6615 36.4792 52.938 36.2102 53.1236 35.8807C53.313 35.5511 53.4077 35.2045 53.4077 34.8409V33.6136C53.3509 33.6818 53.2259 33.7443 53.0327 33.8011C52.8433 33.8542 52.6236 33.9015 52.3736 33.9432C52.1274 33.9811 51.8868 34.0152 51.652 34.0455C51.4209 34.072 51.2334 34.0947 51.0895 34.1136C50.741 34.1591 50.4152 34.233 50.1122 34.3352C49.813 34.4337 49.5705 34.5833 49.3849 34.7841C49.2031 34.9811 49.1122 35.25 49.1122 35.5909C49.1122 36.0568 49.2846 36.4091 49.6293 36.6477C49.9777 36.8826 50.419 37 50.9531 37ZM58.5369 26.3636V38H57.196V26.3636H58.5369ZM64.7884 29.2727V30.4091H60.2656V29.2727H64.7884ZM61.5838 27.1818H62.9247V35.5C62.9247 35.8788 62.9796 36.1629 63.0895 36.3523C63.2031 36.5379 63.3471 36.6629 63.5213 36.7273C63.6993 36.7879 63.8868 36.8182 64.0838 36.8182C64.2315 36.8182 64.3527 36.8106 64.4474 36.7955C64.5421 36.7765 64.6179 36.7614 64.6747 36.75L64.9474 37.9545C64.8565 37.9886 64.7296 38.0227 64.5668 38.0568C64.4039 38.0947 64.1974 38.1136 63.9474 38.1136C63.5687 38.1136 63.1974 38.0322 62.8338 37.8693C62.474 37.7064 62.1747 37.4583 61.9361 37.125C61.7012 36.7917 61.5838 36.3712 61.5838 35.8636V27.1818ZM67.669 41.2727C67.4418 41.2727 67.2391 41.2538 67.0611 41.2159C66.883 41.1818 66.7599 41.1477 66.6918 41.1136L67.0327 39.9318C67.3584 40.0152 67.6463 40.0455 67.8963 40.0227C68.1463 40 68.3679 39.8883 68.5611 39.6875C68.758 39.4905 68.938 39.1705 69.1009 38.7273L69.3509 38.0455L66.1236 29.2727H67.5781L69.9872 36.2273H70.0781L72.4872 29.2727H73.9418L70.2372 39.2727C70.0705 39.7235 69.8641 40.0966 69.6179 40.392C69.3717 40.6913 69.0857 40.9129 68.7599 41.0568C68.438 41.2008 68.0743 41.2727 67.669 41.2727Z" fill="#5B5F62"/>
</svg>
