<svg width="50" height="20" viewBox="0 0 50 20" fill="none" xmlns="http://www.w3.org/2000/svg">
<path d="M5.52734 1.66016C6.28255 1.66016 6.97266 1.76432 7.59766 1.97266C8.22266 2.18099 8.75 2.42188 9.17969 2.69531V5.37109C8.71094 5.08464 8.20964 4.81771 7.67578 4.57031C7.14193 4.32292 6.53646 4.19922 5.85938 4.19922C5.52083 4.19922 5.18229 4.2513 4.84375 4.35547C4.51823 4.45964 4.24479 4.61589 4.02344 4.82422C3.8151 5.03255 3.71094 5.29948 3.71094 5.625C3.71094 6.05469 3.89974 6.38021 4.27734 6.60156C4.65495 6.82292 5.11719 7.04427 5.66406 7.26562L7.26562 7.92969C8.17708 8.32031 8.84766 8.79557 9.27734 9.35547C9.70703 9.91536 9.92188 10.5534 9.92188 11.2695C9.92188 12.0508 9.69401 12.7409 9.23828 13.3398C8.79557 13.9258 8.19661 14.388 7.44141 14.7266C6.69922 15.0651 5.8724 15.2344 4.96094 15.2344C4.19271 15.2344 3.45703 15.1042 2.75391 14.8438C2.05078 14.5833 1.4388 14.2643 0.917969 13.8867V11.2109C1.49089 11.6276 2.1224 11.9792 2.8125 12.2656C3.5026 12.5521 4.23828 12.6953 5.01953 12.6953C5.56641 12.6953 6.03516 12.5911 6.42578 12.3828C6.81641 12.1615 7.01172 11.8359 7.01172 11.4062C7.01172 11.0677 6.84896 10.7943 6.52344 10.5859C6.21094 10.3646 5.86589 10.1823 5.48828 10.0391L3.47656 9.25781C2.46094 8.86719 1.77083 8.35938 1.40625 7.73438C1.05469 7.09635 0.878906 6.39323 0.878906 5.625C0.878906 4.83073 1.09375 4.14062 1.52344 3.55469C1.96615 2.95573 2.53906 2.49349 3.24219 2.16797C3.94531 1.82943 4.70703 1.66016 5.52734 1.66016ZM16.1328 4.88281C16.6667 4.88281 17.207 5.00651 17.7539 5.25391C18.3008 5.5013 18.7565 5.83333 19.1211 6.25V5.13672H21.6016V15H19.1211V13.3398C18.8346 13.8737 18.418 14.3359 17.8711 14.7266C17.3242 15.1042 16.6862 15.293 15.957 15.293C15.1628 15.293 14.4271 15.0911 13.75 14.6875C13.0859 14.2839 12.5521 13.6979 12.1484 12.9297C11.7448 12.1615 11.543 11.2305 11.543 10.1367C11.543 9.04297 11.7448 8.10547 12.1484 7.32422C12.5651 6.54297 13.1185 5.94401 13.8086 5.52734C14.5117 5.09766 15.2865 4.88281 16.1328 4.88281ZM16.6406 7.30469C16.1198 7.30469 15.6706 7.44141 15.293 7.71484C14.9284 7.97526 14.6419 8.32031 14.4336 8.75C14.2253 9.17969 14.1211 9.64193 14.1211 10.1367C14.1211 10.8789 14.3424 11.5104 14.7852 12.0312C15.2409 12.5521 15.8398 12.8125 16.582 12.8125C17.0247 12.8125 17.4349 12.6953 17.8125 12.4609C18.2031 12.2266 18.5156 11.901 18.75 11.4844C18.9974 11.0547 19.1211 10.5404 19.1211 9.94141V8.53516C18.7695 8.15755 18.3854 7.85807 17.9688 7.63672C17.5651 7.41536 17.1224 7.30469 16.6406 7.30469ZM27.1289 0.9375V15H24.6484V0.9375H27.1289ZM33.7305 2.26562V5.13672H36.4648V7.20703H33.7305V11.4648C33.7305 11.9076 33.8281 12.2591 34.0234 12.5195C34.2318 12.7669 34.5378 12.8906 34.9414 12.8906C35.293 12.8906 35.5924 12.8516 35.8398 12.7734C36.1003 12.6953 36.3411 12.5846 36.5625 12.4414V14.4141C36.3151 14.6615 36.0026 14.8698 35.625 15.0391C35.2604 15.2083 34.7982 15.293 34.2383 15.293C33.3529 15.293 32.6302 15.013 32.0703 14.4531C31.5234 13.8802 31.25 13.099 31.25 12.1094V7.20703H29.4727V5.9375C30.0977 5.71615 30.6706 5.29948 31.1914 4.6875C31.7253 4.07552 32.1484 3.26823 32.4609 2.26562H33.7305ZM40.6641 5.13672L43.4766 11.4258L46.2109 5.13672H49.043L41.875 19.6875H39.0625L42.0312 14.2773L37.7734 5.13672H40.6641Z" fill="#2D3134"/>
</svg>
